G75*
%MOIN*%
%OFA0B0*%
%FSLAX25Y25*%
%IPPOS*%
%LPD*%
%AMOC8*
5,1,8,0,0,1.08239X$1,22.5*
%
%ADD10C,0.00600*%
%ADD11C,0.00000*%
D10*
X0206652Y0060668D02*
X0207720Y0059600D01*
X0209855Y0059600D01*
X0210922Y0060668D01*
X0210922Y0062803D01*
X0209855Y0063870D01*
X0207720Y0063870D01*
X0206652Y0062803D01*
X0206652Y0060668D01*
X0213097Y0060668D02*
X0214165Y0059600D01*
X0215233Y0060668D01*
X0216300Y0059600D01*
X0217368Y0060668D01*
X0217368Y0063870D01*
X0213097Y0063870D02*
X0213097Y0060668D01*
X0221678Y0059600D02*
X0221678Y0066005D01*
X0223813Y0066005D02*
X0219543Y0066005D01*
X0232421Y0063870D02*
X0234556Y0063870D01*
X0233488Y0064938D02*
X0233488Y0060668D01*
X0232421Y0059600D01*
X0236731Y0060668D02*
X0236731Y0062803D01*
X0237799Y0063870D01*
X0239934Y0063870D01*
X0241001Y0062803D01*
X0241001Y0060668D01*
X0239934Y0059600D01*
X0237799Y0059600D01*
X0236731Y0060668D01*
X0243176Y0060668D02*
X0243176Y0062803D01*
X0244244Y0063870D01*
X0247447Y0063870D01*
X0249622Y0063870D02*
X0253892Y0059600D01*
X0256067Y0060668D02*
X0256067Y0062803D01*
X0257135Y0063870D01*
X0259270Y0063870D01*
X0260338Y0062803D01*
X0260338Y0060668D01*
X0259270Y0059600D01*
X0257135Y0059600D01*
X0256067Y0060668D01*
X0253892Y0063870D02*
X0249622Y0059600D01*
X0247447Y0059600D02*
X0244244Y0059600D01*
X0243176Y0060668D01*
X0247447Y0059600D02*
X0247447Y0066005D01*
X0262513Y0064938D02*
X0262513Y0063870D01*
X0263581Y0062803D01*
X0266783Y0062803D01*
X0263581Y0062803D02*
X0262513Y0061735D01*
X0262513Y0060668D01*
X0263581Y0059600D01*
X0266783Y0059600D01*
X0266783Y0066005D01*
X0263581Y0066005D01*
X0262513Y0064938D01*
X0263581Y0055505D02*
X0262513Y0054438D01*
X0262513Y0052303D01*
X0263581Y0051235D01*
X0266783Y0051235D01*
X0264648Y0051235D02*
X0262513Y0049100D01*
X0260338Y0049100D02*
X0259270Y0049100D01*
X0259270Y0050168D01*
X0260338Y0050168D01*
X0260338Y0049100D01*
X0257115Y0050168D02*
X0256047Y0049100D01*
X0253912Y0049100D01*
X0252845Y0050168D01*
X0252845Y0051235D01*
X0253912Y0052303D01*
X0256047Y0052303D01*
X0257115Y0053370D01*
X0257115Y0054438D01*
X0256047Y0055505D01*
X0253912Y0055505D01*
X0252845Y0054438D01*
X0263581Y0055505D02*
X0266783Y0055505D01*
X0266783Y0049100D01*
X0250670Y0049100D02*
X0249602Y0049100D01*
X0249602Y0050168D01*
X0250670Y0050168D01*
X0250670Y0049100D01*
X0241001Y0049100D02*
X0236731Y0053370D01*
X0236731Y0054438D01*
X0237799Y0055505D01*
X0239934Y0055505D01*
X0241001Y0054438D01*
X0234556Y0054438D02*
X0233488Y0055505D01*
X0231353Y0055505D01*
X0230285Y0054438D01*
X0234556Y0050168D01*
X0233488Y0049100D01*
X0231353Y0049100D01*
X0230285Y0050168D01*
X0230285Y0054438D01*
X0228110Y0053370D02*
X0225975Y0055505D01*
X0225975Y0049100D01*
X0228110Y0049100D02*
X0223840Y0049100D01*
X0221665Y0050168D02*
X0220597Y0049100D01*
X0218462Y0049100D01*
X0217394Y0050168D01*
X0217394Y0052303D01*
X0218462Y0053370D01*
X0219530Y0053370D01*
X0221665Y0052303D01*
X0221665Y0055505D01*
X0217394Y0055505D01*
X0234556Y0054438D02*
X0234556Y0050168D01*
X0236731Y0049100D02*
X0241001Y0049100D01*
D11*
X0001126Y0006617D02*
X0001126Y0006517D01*
X0001126Y0006550D02*
X0001076Y0006550D01*
X0001059Y0006567D01*
X0001059Y0006600D01*
X0001076Y0006617D01*
X0001126Y0006617D01*
X0001151Y0006600D02*
X0001151Y0006550D01*
X0001184Y0006550D02*
X0001184Y0006600D01*
X0001168Y0006617D01*
X0001151Y0006600D01*
X0001184Y0006600D02*
X0001201Y0006617D01*
X0001218Y0006617D01*
X0001218Y0006550D01*
X0001243Y0006567D02*
X0001243Y0006600D01*
X0001260Y0006617D01*
X0001310Y0006617D01*
X0001310Y0006650D02*
X0001310Y0006550D01*
X0001260Y0006550D01*
X0001243Y0006567D01*
X0001339Y0006567D02*
X0001339Y0006550D01*
X0001356Y0006550D01*
X0001356Y0006567D01*
X0001339Y0006567D01*
X0001381Y0006550D02*
X0001381Y0006600D01*
X0001398Y0006617D01*
X0001448Y0006617D01*
X0001448Y0006550D01*
X0001473Y0006583D02*
X0001540Y0006583D01*
X0001540Y0006567D02*
X0001540Y0006600D01*
X0001523Y0006617D01*
X0001490Y0006617D01*
X0001473Y0006600D01*
X0001473Y0006583D01*
X0001490Y0006550D02*
X0001523Y0006550D01*
X0001540Y0006567D01*
X0001565Y0006583D02*
X0001632Y0006583D01*
X0001632Y0006567D02*
X0001632Y0006600D01*
X0001615Y0006617D01*
X0001582Y0006617D01*
X0001565Y0006600D01*
X0001565Y0006583D01*
X0001582Y0006550D02*
X0001615Y0006550D01*
X0001632Y0006567D01*
X0001659Y0006617D02*
X0001675Y0006617D01*
X0001709Y0006583D01*
X0001709Y0006550D02*
X0001709Y0006617D01*
X0001734Y0006617D02*
X0001784Y0006617D01*
X0001801Y0006600D01*
X0001801Y0006567D01*
X0001784Y0006550D01*
X0001734Y0006550D01*
X0001826Y0006567D02*
X0001843Y0006583D01*
X0001876Y0006583D01*
X0001893Y0006600D01*
X0001876Y0006617D01*
X0001826Y0006617D01*
X0001826Y0006567D02*
X0001843Y0006550D01*
X0001893Y0006550D01*
X0001920Y0006550D02*
X0001970Y0006583D01*
X0001920Y0006617D01*
X0001970Y0006650D02*
X0001970Y0006550D01*
X0001998Y0006550D02*
X0002031Y0006550D01*
X0002014Y0006550D02*
X0002014Y0006650D01*
X0002031Y0006650D01*
X0002076Y0006650D02*
X0002076Y0006667D01*
X0002076Y0006617D02*
X0002076Y0006550D01*
X0002092Y0006550D02*
X0002059Y0006550D01*
X0002118Y0006567D02*
X0002134Y0006583D01*
X0002168Y0006583D01*
X0002185Y0006600D01*
X0002168Y0006617D01*
X0002118Y0006617D01*
X0002092Y0006617D02*
X0002076Y0006617D01*
X0002118Y0006567D02*
X0002134Y0006550D01*
X0002185Y0006550D01*
X0002210Y0006533D02*
X0002277Y0006533D01*
X0002353Y0006550D02*
X0002353Y0006617D01*
X0002379Y0006600D02*
X0002395Y0006617D01*
X0002429Y0006617D01*
X0002445Y0006600D01*
X0002445Y0006567D01*
X0002429Y0006550D01*
X0002395Y0006550D01*
X0002379Y0006567D01*
X0002379Y0006600D01*
X0002353Y0006583D02*
X0002320Y0006617D01*
X0002303Y0006617D01*
X0002473Y0006600D02*
X0002507Y0006600D01*
X0002490Y0006633D02*
X0002473Y0006650D01*
X0002490Y0006633D02*
X0002490Y0006550D01*
X0002532Y0006533D02*
X0002599Y0006533D01*
X0002624Y0006567D02*
X0002624Y0006600D01*
X0002641Y0006617D01*
X0002674Y0006617D01*
X0002691Y0006600D01*
X0002691Y0006567D01*
X0002674Y0006550D01*
X0002641Y0006550D01*
X0002624Y0006567D01*
X0002716Y0006550D02*
X0002766Y0006550D01*
X0002783Y0006567D01*
X0002783Y0006600D01*
X0002766Y0006617D01*
X0002716Y0006617D01*
X0002716Y0006533D01*
X0002733Y0006517D01*
X0002750Y0006517D01*
X0002808Y0006567D02*
X0002808Y0006600D01*
X0002825Y0006617D01*
X0002858Y0006617D01*
X0002875Y0006600D01*
X0002875Y0006567D01*
X0002858Y0006550D01*
X0002825Y0006550D01*
X0002808Y0006567D01*
X0002900Y0006550D02*
X0002967Y0006550D01*
X0002967Y0006650D01*
X0002993Y0006650D02*
X0003059Y0006550D01*
X0003085Y0006567D02*
X0003085Y0006600D01*
X0003101Y0006617D01*
X0003135Y0006617D01*
X0003151Y0006600D01*
X0003151Y0006567D01*
X0003135Y0006550D01*
X0003101Y0006550D01*
X0003085Y0006567D01*
X0003177Y0006567D02*
X0003177Y0006617D01*
X0003177Y0006567D02*
X0003193Y0006550D01*
X0003210Y0006567D01*
X0003227Y0006550D01*
X0003243Y0006567D01*
X0003243Y0006617D01*
X0003269Y0006650D02*
X0003335Y0006650D01*
X0003302Y0006650D02*
X0003302Y0006550D01*
X0003456Y0006550D02*
X0003472Y0006567D01*
X0003472Y0006633D01*
X0003456Y0006617D02*
X0003489Y0006617D01*
X0003514Y0006600D02*
X0003531Y0006617D01*
X0003564Y0006617D01*
X0003581Y0006600D01*
X0003581Y0006567D01*
X0003564Y0006550D01*
X0003531Y0006550D01*
X0003514Y0006567D01*
X0003514Y0006600D01*
X0003606Y0006600D02*
X0003623Y0006617D01*
X0003673Y0006617D01*
X0003698Y0006617D02*
X0003765Y0006550D01*
X0003791Y0006567D02*
X0003791Y0006600D01*
X0003807Y0006617D01*
X0003841Y0006617D01*
X0003857Y0006600D01*
X0003857Y0006567D01*
X0003841Y0006550D01*
X0003807Y0006550D01*
X0003791Y0006567D01*
X0003765Y0006617D02*
X0003698Y0006550D01*
X0003673Y0006550D02*
X0003623Y0006550D01*
X0003606Y0006567D01*
X0003606Y0006600D01*
X0003673Y0006650D02*
X0003673Y0006550D01*
X0003883Y0006567D02*
X0003899Y0006550D01*
X0003949Y0006550D01*
X0003949Y0006650D01*
X0003899Y0006650D01*
X0003883Y0006633D01*
X0003883Y0006617D01*
X0003899Y0006600D01*
X0003949Y0006600D01*
X0003899Y0006600D02*
X0003883Y0006583D01*
X0003883Y0006567D01*
X0003975Y0006650D02*
X0004041Y0006550D01*
X0004067Y0006567D02*
X0004083Y0006583D01*
X0004117Y0006583D01*
X0004133Y0006600D01*
X0004117Y0006617D01*
X0004067Y0006617D01*
X0004067Y0006567D02*
X0004083Y0006550D01*
X0004133Y0006550D01*
X0004159Y0006550D02*
X0004159Y0006600D01*
X0004175Y0006617D01*
X0004226Y0006617D01*
X0004226Y0006550D01*
X0004251Y0006550D02*
X0004301Y0006550D01*
X0004318Y0006567D01*
X0004318Y0006600D01*
X0004301Y0006617D01*
X0004251Y0006617D01*
X0004251Y0006533D01*
X0004268Y0006517D01*
X0004284Y0006517D01*
X0004346Y0006550D02*
X0004379Y0006550D01*
X0004362Y0006550D02*
X0004362Y0006617D01*
X0004379Y0006617D01*
X0004404Y0006617D02*
X0004454Y0006617D01*
X0004471Y0006600D01*
X0004454Y0006583D01*
X0004421Y0006583D01*
X0004404Y0006567D01*
X0004421Y0006550D01*
X0004471Y0006550D01*
X0004496Y0006583D02*
X0004563Y0006583D01*
X0004563Y0006567D02*
X0004563Y0006600D01*
X0004546Y0006617D01*
X0004513Y0006617D01*
X0004496Y0006600D01*
X0004496Y0006583D01*
X0004513Y0006550D02*
X0004546Y0006550D01*
X0004563Y0006567D01*
X0004588Y0006567D02*
X0004588Y0006633D01*
X0004605Y0006650D01*
X0004655Y0006650D01*
X0004655Y0006550D01*
X0004605Y0006550D01*
X0004588Y0006567D01*
X0004681Y0006650D02*
X0004747Y0006550D01*
X0004773Y0006567D02*
X0004789Y0006550D01*
X0004823Y0006550D01*
X0004839Y0006567D01*
X0004839Y0006633D01*
X0004823Y0006650D01*
X0004789Y0006650D01*
X0004773Y0006633D01*
X0004865Y0006633D02*
X0004865Y0006600D01*
X0004881Y0006583D01*
X0004931Y0006583D01*
X0004898Y0006583D02*
X0004865Y0006550D01*
X0004931Y0006550D02*
X0004931Y0006650D01*
X0004881Y0006650D01*
X0004865Y0006633D01*
X0004957Y0006650D02*
X0004957Y0006550D01*
X0005024Y0006650D01*
X0005024Y0006550D01*
X0005116Y0006550D02*
X0005049Y0006650D01*
X0005141Y0006650D02*
X0005208Y0006650D01*
X0005208Y0006600D01*
X0005174Y0006617D01*
X0005158Y0006617D01*
X0005141Y0006600D01*
X0005141Y0006567D01*
X0005158Y0006550D01*
X0005191Y0006550D01*
X0005208Y0006567D01*
X0005233Y0006550D02*
X0005300Y0006550D01*
X0005325Y0006567D02*
X0005342Y0006550D01*
X0005375Y0006550D01*
X0005392Y0006567D01*
X0005325Y0006633D01*
X0005325Y0006567D01*
X0005300Y0006617D02*
X0005266Y0006650D01*
X0005266Y0006550D01*
X0005325Y0006633D02*
X0005342Y0006650D01*
X0005375Y0006650D01*
X0005392Y0006633D01*
X0005392Y0006567D01*
X0005417Y0006550D02*
X0005484Y0006550D01*
X0005417Y0006617D01*
X0005417Y0006633D01*
X0005434Y0006650D01*
X0005467Y0006650D01*
X0005484Y0006633D01*
X0005509Y0006600D02*
X0005576Y0006600D01*
X0005601Y0006600D02*
X0005668Y0006600D01*
X0005618Y0006650D01*
X0005618Y0006550D01*
X0005693Y0006550D02*
X0005760Y0006550D01*
X0005785Y0006567D02*
X0005802Y0006550D01*
X0005836Y0006550D01*
X0005852Y0006567D01*
X0005785Y0006633D01*
X0005785Y0006567D01*
X0005760Y0006617D02*
X0005727Y0006650D01*
X0005727Y0006550D01*
X0005785Y0006633D02*
X0005802Y0006650D01*
X0005836Y0006650D01*
X0005852Y0006633D01*
X0005852Y0006567D01*
X0005878Y0006550D02*
X0005944Y0006550D01*
X0005878Y0006617D01*
X0005878Y0006633D01*
X0005894Y0006650D01*
X0005928Y0006650D01*
X0005944Y0006633D01*
X0005970Y0006650D02*
X0006036Y0006550D01*
X0006062Y0006567D02*
X0006078Y0006583D01*
X0006112Y0006583D01*
X0006128Y0006600D01*
X0006112Y0006617D01*
X0006062Y0006617D01*
X0006062Y0006567D02*
X0006078Y0006550D01*
X0006128Y0006550D01*
X0006156Y0006550D02*
X0006173Y0006567D01*
X0006173Y0006633D01*
X0006190Y0006617D02*
X0006156Y0006617D01*
X0006215Y0006617D02*
X0006265Y0006617D01*
X0006282Y0006600D01*
X0006282Y0006567D01*
X0006265Y0006550D01*
X0006215Y0006550D01*
X0006307Y0006583D02*
X0006374Y0006583D01*
X0006374Y0006567D02*
X0006374Y0006600D01*
X0006357Y0006617D01*
X0006324Y0006617D01*
X0006307Y0006600D01*
X0006307Y0006583D01*
X0006324Y0006550D02*
X0006357Y0006550D01*
X0006374Y0006567D01*
X0006402Y0006533D02*
X0006402Y0006617D01*
X0006402Y0006650D02*
X0006402Y0006667D01*
X0006461Y0006600D02*
X0006477Y0006617D01*
X0006511Y0006617D01*
X0006527Y0006600D01*
X0006527Y0006567D01*
X0006511Y0006550D01*
X0006477Y0006550D01*
X0006461Y0006567D01*
X0006461Y0006600D01*
X0006435Y0006517D02*
X0006419Y0006517D01*
X0006402Y0006533D01*
X0006554Y0006617D02*
X0006571Y0006617D01*
X0006604Y0006583D01*
X0006630Y0006600D02*
X0006646Y0006583D01*
X0006696Y0006583D01*
X0006696Y0006550D02*
X0006696Y0006650D01*
X0006646Y0006650D01*
X0006630Y0006633D01*
X0006630Y0006600D01*
X0006604Y0006617D02*
X0006604Y0006550D01*
X0006722Y0006650D02*
X0006788Y0006550D01*
X0006814Y0006550D02*
X0006847Y0006583D01*
X0006830Y0006583D02*
X0006880Y0006583D01*
X0006880Y0006550D02*
X0006880Y0006650D01*
X0006830Y0006650D01*
X0006814Y0006633D01*
X0006814Y0006600D01*
X0006830Y0006583D01*
X0006906Y0006550D02*
X0006906Y0006650D01*
X0006972Y0006650D02*
X0006972Y0006550D01*
X0006939Y0006583D01*
X0006906Y0006550D01*
X0006998Y0006650D02*
X0007065Y0006550D01*
X0007107Y0006550D02*
X0007140Y0006550D01*
X0007157Y0006567D01*
X0007157Y0006600D01*
X0007140Y0006617D01*
X0007107Y0006617D01*
X0007090Y0006600D01*
X0007090Y0006583D01*
X0007157Y0006583D01*
X0007182Y0006617D02*
X0007215Y0006550D01*
X0007249Y0006617D01*
X0007293Y0006617D02*
X0007293Y0006550D01*
X0007277Y0006550D02*
X0007310Y0006550D01*
X0007310Y0006617D02*
X0007293Y0006617D01*
X0007293Y0006650D02*
X0007293Y0006667D01*
X0007337Y0006617D02*
X0007353Y0006617D01*
X0007387Y0006583D01*
X0007412Y0006567D02*
X0007412Y0006633D01*
X0007429Y0006650D01*
X0007479Y0006650D01*
X0007479Y0006550D01*
X0007429Y0006550D01*
X0007412Y0006567D01*
X0007387Y0006550D02*
X0007387Y0006617D01*
X0007596Y0006600D02*
X0007596Y0006583D01*
X0007663Y0006583D01*
X0007663Y0006567D02*
X0007663Y0006600D01*
X0007646Y0006617D01*
X0007613Y0006617D01*
X0007596Y0006600D01*
X0007613Y0006550D02*
X0007646Y0006550D01*
X0007663Y0006567D01*
X0007691Y0006550D02*
X0007724Y0006550D01*
X0007708Y0006550D02*
X0007708Y0006650D01*
X0007724Y0006650D01*
X0007750Y0006617D02*
X0007800Y0006617D01*
X0007816Y0006600D01*
X0007816Y0006567D01*
X0007800Y0006550D01*
X0007750Y0006550D01*
X0007750Y0006533D02*
X0007750Y0006617D01*
X0007750Y0006533D02*
X0007766Y0006517D01*
X0007783Y0006517D01*
X0007842Y0006567D02*
X0007842Y0006600D01*
X0007859Y0006617D01*
X0007892Y0006617D01*
X0007909Y0006600D01*
X0007909Y0006567D01*
X0007892Y0006550D01*
X0007859Y0006550D01*
X0007842Y0006567D01*
X0007934Y0006567D02*
X0007934Y0006600D01*
X0007951Y0006617D01*
X0007984Y0006617D01*
X0008001Y0006600D01*
X0008001Y0006567D01*
X0007984Y0006550D01*
X0007951Y0006550D01*
X0007934Y0006567D01*
X0008026Y0006567D02*
X0008026Y0006600D01*
X0008059Y0006600D01*
X0008026Y0006567D02*
X0008043Y0006550D01*
X0008076Y0006550D01*
X0008093Y0006567D01*
X0008093Y0006633D01*
X0008076Y0006650D01*
X0008043Y0006650D01*
X0008026Y0006633D01*
X0008118Y0006650D02*
X0008185Y0006550D01*
X0008230Y0006550D02*
X0008230Y0006633D01*
X0008213Y0006650D01*
X0008213Y0006600D02*
X0008246Y0006600D01*
X0008274Y0006600D02*
X0008308Y0006600D01*
X0008333Y0006617D02*
X0008333Y0006550D01*
X0008383Y0006550D01*
X0008400Y0006567D01*
X0008400Y0006617D01*
X0008428Y0006617D02*
X0008461Y0006617D01*
X0008444Y0006633D02*
X0008444Y0006567D01*
X0008428Y0006550D01*
X0008486Y0006567D02*
X0008503Y0006550D01*
X0008536Y0006550D01*
X0008553Y0006567D01*
X0008536Y0006600D02*
X0008503Y0006600D01*
X0008486Y0006583D01*
X0008486Y0006567D01*
X0008536Y0006600D02*
X0008553Y0006617D01*
X0008553Y0006633D01*
X0008536Y0006650D01*
X0008503Y0006650D01*
X0008486Y0006633D01*
X0008578Y0006650D02*
X0008645Y0006550D01*
X0008675Y0006550D02*
X0008691Y0006550D01*
X0008691Y0006567D01*
X0008675Y0006567D01*
X0008675Y0006550D01*
X0008675Y0006600D02*
X0008691Y0006600D01*
X0008691Y0006617D01*
X0008675Y0006617D01*
X0008675Y0006600D01*
X0008717Y0006650D02*
X0008783Y0006650D01*
X0008783Y0006550D01*
X0008783Y0006600D02*
X0008750Y0006600D01*
X0008291Y0006633D02*
X0008274Y0006650D01*
X0008291Y0006633D02*
X0008291Y0006550D01*
X0004362Y0006667D02*
X0004362Y0006650D01*
M02*
