G75*
%MOIN*%
%OFA0B0*%
%FSLAX25Y25*%
%IPPOS*%
%LPD*%
%AMOC8*
5,1,8,0,0,1.08239X$1,22.5*
%
%ADD10C,0.06800*%
%ADD11C,0.06000*%
%ADD12C,0.08300*%
%ADD13C,0.11300*%
%ADD14C,0.04369*%
%ADD15C,0.04762*%
D10*
X0015783Y0041800D02*
X0021783Y0041800D01*
X0021783Y0051800D02*
X0015783Y0051800D01*
X0015783Y0061800D02*
X0021783Y0061800D01*
X0021783Y0071800D02*
X0015783Y0071800D01*
D11*
X0018783Y0029400D02*
X0018783Y0024200D01*
X0028783Y0024200D02*
X0028783Y0029400D01*
X0038783Y0029400D02*
X0038783Y0024200D01*
X0048783Y0024200D02*
X0048783Y0029400D01*
X0058783Y0029400D02*
X0058783Y0024200D01*
X0068783Y0024200D02*
X0068783Y0029400D01*
X0078783Y0029400D02*
X0078783Y0024200D01*
X0088783Y0024200D02*
X0088783Y0029400D01*
X0098783Y0029400D02*
X0098783Y0024200D01*
X0108783Y0024200D02*
X0108783Y0029400D01*
X0118783Y0029400D02*
X0118783Y0024200D01*
X0128783Y0024200D02*
X0128783Y0029400D01*
X0138783Y0029400D02*
X0138783Y0024200D01*
X0148783Y0024200D02*
X0148783Y0029400D01*
X0148783Y0084200D02*
X0148783Y0089400D01*
X0138783Y0089400D02*
X0138783Y0084200D01*
X0128783Y0084200D02*
X0128783Y0089400D01*
X0118783Y0089400D02*
X0118783Y0084200D01*
X0108783Y0084200D02*
X0108783Y0089400D01*
X0098783Y0089400D02*
X0098783Y0084200D01*
X0088783Y0084200D02*
X0088783Y0089400D01*
X0078783Y0089400D02*
X0078783Y0084200D01*
X0068783Y0084200D02*
X0068783Y0089400D01*
X0058783Y0089400D02*
X0058783Y0084200D01*
X0048783Y0084200D02*
X0048783Y0089400D01*
X0038783Y0089400D02*
X0038783Y0084200D01*
X0028783Y0084200D02*
X0028783Y0089400D01*
X0018783Y0089400D02*
X0018783Y0084200D01*
D12*
X0353158Y0087425D03*
D13*
X0343119Y0077386D03*
X0363197Y0077386D03*
X0363197Y0097464D03*
X0343119Y0097464D03*
D14*
X0317533Y0089925D03*
X0296283Y0092425D03*
X0283158Y0086175D03*
X0248783Y0086800D03*
X0240033Y0086800D03*
X0231283Y0087425D03*
X0226908Y0087425D03*
X0216283Y0089925D03*
X0249408Y0099300D03*
X0262533Y0097425D03*
X0326283Y0081175D03*
X0280033Y0075550D03*
X0208783Y0061800D03*
X0178783Y0071800D03*
X0191908Y0073050D03*
X0156283Y0060550D03*
X0141283Y0061800D03*
X0130658Y0063050D03*
X0112533Y0066800D03*
X0087533Y0059300D03*
X0072833Y0055550D03*
X0044108Y0054800D03*
X0030983Y0050000D03*
X0053783Y0044925D03*
X0083158Y0037425D03*
X0073783Y0034925D03*
X0093783Y0018650D03*
X0133158Y0018675D03*
X0159408Y0025550D03*
X0163783Y0021175D03*
X0182533Y0023675D03*
X0163283Y0012500D03*
X0228158Y0028675D03*
X0238158Y0030550D03*
X0212533Y0036175D03*
X0176908Y0038050D03*
X0161908Y0043050D03*
X0155658Y0038675D03*
X0081908Y0064925D03*
X0069408Y0071175D03*
X0064408Y0071175D03*
X0058783Y0071175D03*
X0088783Y0075550D03*
X0098783Y0075550D03*
X0108783Y0075550D03*
X0248783Y0041800D03*
X0271908Y0032425D03*
X0279408Y0032425D03*
X0283783Y0036800D03*
X0320483Y0042500D03*
X0335033Y0042425D03*
X0333683Y0030800D03*
X0333683Y0026000D03*
X0333683Y0021200D03*
D15*
X0353783Y0021800D03*
X0358158Y0050550D03*
X0048783Y0078675D03*
X0038783Y0078675D03*
X0028783Y0078675D03*
X0018783Y0078675D03*
M02*
