%
M48
M72
T01C0.01969
T02C0.02362
T03C0.03200
T04C0.04000
T05C0.05000
T06C0.07000
%
T01
X93783Y18650
X133158Y18675
X159408Y25550
X163783Y21175
X182533Y23675
X163283Y12500
X228158Y28675
X238158Y30550
X212533Y36175
X176908Y38050
X161908Y43050
X155658Y38675
X87533Y59300
X72833Y55550
X44108Y54800
X30983Y50000
X53783Y44925
X83158Y37425
X73783Y34925
X156283Y60550
X141283Y61800
X130658Y63050
X112533Y66800
X108783Y75550
X98783Y75550
X88783Y75550
X69408Y71175
X64408Y71175
X58783Y71175
X81908Y64925
X178783Y71800
X191908Y73050
X208783Y61800
X280033Y75550
X283158Y86175
X296283Y92425
X317533Y89925
X326283Y81175
X262533Y97425
X249408Y99300
X216283Y89925
X226908Y87425
X231283Y87425
X240033Y86800
X248783Y86800
X320483Y42500
X335033Y42425
X333683Y30800
X333683Y26000
X333683Y21200
X283783Y36800
X279408Y32425
X271908Y32425
X248783Y41800
T02
X353783Y21800
X358158Y50550
X48783Y78675
X38783Y78675
X28783Y78675
X18783Y78675
T03
X18783Y26800
X28783Y26800
X38783Y26800
X48783Y26800
X58783Y26800
X68783Y26800
X78783Y26800
X88783Y26800
X98783Y26800
X108783Y26800
X118783Y26800
X128783Y26800
X138783Y26800
X148783Y26800
X148783Y86800
X138783Y86800
X128783Y86800
X118783Y86800
X108783Y86800
X98783Y86800
X88783Y86800
X78783Y86800
X68783Y86800
X58783Y86800
X48783Y86800
X38783Y86800
X28783Y86800
X18783Y86800
T04
X18783Y71800
X18783Y61800
X18783Y51800
X18783Y41800
T05
X353158Y87425
T06
X343119Y77386
X363197Y77386
X363197Y97464
X343119Y97464
M30
